<?xml version="1.0" encoding="UTF-8"?><svg id="Ebene_2" xmlns="http://www.w3.org/2000/svg" viewBox="0 0 1426.76 120.79"><defs><style>.cls-1{fill:#fff;}</style></defs><g id="Ebene_1-2"><path class="cls-1" d="m1426.76,120.79c-5.91-3.28-11.8-6.59-17.73-9.84-4.74-2.6-9.52-5.11-14.27-7.68-3.55-1.91-7.15-3.73-10.62-5.78-3.38-2-7.18-2.24-10.86-3.01-5.7-1.19-11.42-2.3-17.12-3.45-5.67-1.14-11.32-2.35-17-3.4-1.18-.22-2.52-.12-3.7.19-7,1.84-13.97,3.79-20.95,5.68-5.46,1.48-10.97,2.79-16.38,4.44-3.34,1.02-6.57,1.04-9.94.46-6.56-1.12-13.14-2.1-19.7-3.19-1.05-.18-2.11-.52-3.07-.98-8.98-4.34-17.94-8.72-26.92-13.09-2.65-1.29-5.24-2.78-8-3.77-2.11-.75-4.44-1.03-6.7-1.22-7.21-.59-14.43-1-21.64-1.56-6.13-.48-12.25-1.12-18.38-1.62-3.15-.26-6.31-.35-9.46-.58-2.94-.21-5.9-.39-8.81-.82-1.27-.19-2.47-.93-3.68-1.48-8.98-4.05-17.96-8.09-26.93-12.17-6.96-3.17-13.9-6.39-20.86-9.56-4.76-2.17-9.48-4.48-14.36-6.37-1.53-.6-3.52-.21-5.27-.02-7.11.74-14.21,1.58-21.32,2.38-7.31.82-14.63,1.64-21.94,2.47-.58.07-1.14.25-1.71.35-1.59.28-3.11.23-4.61-.55-5.78-3.03-11.59-6-17.39-8.99-6.43-3.31-12.8-6.74-19.31-9.9-4.59-2.23-9.37-4.09-14.06-6.13-10.6-4.61-21.18-9.25-31.79-13.83-5.99-2.59-12.02-5.09-18.06-7.58-.56-.23-1.34-.23-1.92-.03-8.44,2.82-16.87,5.7-25.3,8.56-8.54,2.9-17.03,5.99-25.65,8.64-4.01,1.23-7.22,3.35-10.27,6.05-5.26,4.64-10.62,9.15-16.01,13.63-.74.61-1.85.96-2.83,1.07-5.66.63-11.33,1.14-17,1.71-3.85.39-7.76.49-11.52,1.28-5.12,1.08-10.12,2.71-15.17,4.11-1.4.39-2.78.91-4.2,1.19-4.08.81-7.62,2.74-11.17,4.77-1.38.79-3.11,1.18-4.72,1.33-5.67.51-11.35.86-17.04,1.21-2.66.17-5.32.16-7.98.34-2.74.19-5.52.27-8.17.86-1.72.38-3.28,1.55-4.87,2.43-3.27,1.82-6.48,3.75-9.79,5.48-1.02.54-2.3.74-3.47.83-6.22.49-12.44.85-18.66,1.33-5.47.42-10.93.97-16.4,1.4-2.94.23-5.89.4-8.84.47-4.18.11-8.09,1.42-12.05,2.56-5.96,1.71-11.9,3.45-17.87,5.11-.64.18-1.52.09-2.11-.21-5.05-2.62-10.05-5.35-15.1-7.97-1.35-.7-2.81-1.26-4.27-1.71-9.07-2.77-18.15-5.5-27.25-8.19-.69-.2-1.56-.15-2.26.06-7.1,2.11-14.18,4.26-21.27,6.42-9.43,2.87-18.86,5.75-28.29,8.61-4.18,1.26-8.34,2.6-12.58,3.63-1.73.42-3.64.15-5.46.15-1,0-1.99-.15-2.99-.16-6.41-.11-12.82-.19-19.22-.29-1.54-.03-3.08-.08-4.61-.21-3.79-.3-7.44.47-11.1,1.32-5.67,1.31-11.37,2.55-17.05,3.81-7.72,1.71-15.44,3.42-23.15,5.12-1.58.35-3.16.74-4.75,1.04-.64.12-1.34.13-1.98.03-12.15-1.99-24.29-4.02-36.44-6.02-8.5-1.4-16.99-2.79-25.49-4.17-4.27-.7-8.54-1.37-12.8-2.1-.81-.14-1.62-.39-2.36-.75-10.3-4.96-20.59-9.94-30.87-14.93-8.12-3.94-16.22-7.9-24.33-11.83-2.81-1.36-5.62-2.71-8.49-3.92-.66-.28-1.67-.18-2.35.12-5.14,2.26-10.23,4.61-15.34,6.93-11.28,5.12-22.57,10.23-33.85,15.34-4.77,2.16-9.51,4.39-14.33,6.44-1.33.56-2.89.67-4.36.8-5.88.53-11.76,1.01-17.64,1.46-3.07.24-6.15.31-9.21.56-6.38.52-12.75,1.13-19.13,1.66-3.77.31-7.56.43-11.31.87-2.03.24-4.14.67-5.98,1.52-8.89,4.15-17.7,8.48-26.53,12.75-2.17,1.05-4.26,2.28-6.48,3.2-1.74.72-3.61,1.21-5.47,1.57-3.67.7-7.38,1.26-11.07,1.85-3.78.61-7.55,1.22-11.34,1.78-.59.09-1.24-.06-1.84-.22-6.23-1.66-12.46-3.33-18.68-5.01-7.51-2.02-15.01-4.08-22.54-6.06-1.06-.28-2.26-.38-3.33-.18-5.76,1.09-11.5,2.32-17.25,3.47-6.12,1.22-12.22,2.52-18.37,3.56-4.36.74-8.4,2.1-12.26,4.28-6.98,3.95-14.09,7.66-21.13,11.5-5.91,3.22-11.8,6.48-17.7,9.71-.5.27-1.07.43-1.61.64h1426.76Z"/></g></svg>