<svg id="LOGO_Wortmarke_Bildmarke_Claim" data-name="LOGO = Wortmarke+Bildmarke+Claim" xmlns="http://www.w3.org/2000/svg" viewBox="0 0 1174.11 232.72"><defs><style>.cls-1,.cls-2{fill:#3b3b3a;}.cls-2{fill-rule:evenodd;}</style></defs><path class="cls-1" d="M392.75,230a5,5,0,0,1-5-5V6.72a5,5,0,0,1,10,0V225A5,5,0,0,1,392.75,230Z"/><path class="cls-2" d="M512.17,94a11.42,11.42,0,0,0-7.89,3.28,10.21,10.21,0,0,0-2.95,7.17s-.36,3.9-.36,12.19.36,12.19.36,12.19a10.22,10.22,0,0,0,2.79,7c2,2.12,4.48,3.23,8,3.45s8.05.37,21.67.37,18.91-.27,21.67-.37a11.86,11.86,0,0,0,7.66-3.06,10.22,10.22,0,0,0,3.17-7.38s.39-4.55.39-12.19-.39-12.19-.39-12.19a10.2,10.2,0,0,0-3.06-7.28A11.06,11.06,0,0,0,555.51,94c-3.26-.11-8.68-.37-21.67-.37S515.38,93.89,512.17,94ZM557.1,81.84c12,0,21.88,9.36,21.88,20.89,0,0,.36,4.93.36,13.9s-.36,14-.36,14c0,11.54-9.7,20.89-21.67,20.89,0,0-7,.36-23.48.36s-23.47-.36-23.47-.36c-12,0-21.67-9.35-21.67-20.89,0,0-.37-4.21-.37-14s.37-13.85.37-13.85c0-11.53,10-20.89,21.93-20.89,0,0,6.57-.36,23.09-.36S557.1,81.84,557.1,81.84Z"/><path class="cls-2" d="M693.66,81.55H769.5c4,0,7.11,2.85,7.11,6.22S773.37,94,769.39,94H743.68a6,6,0,0,0-5.9,5.75v44.83c0,3.85-2.82,7-6.32,7s-6.32-3.11-6.32-7V99.68A6,6,0,0,0,719.25,94H693.54c-4,0-7.22-2.81-7.22-6.18s3.35-6.22,7.34-6.22Z"/><path class="cls-2" d="M1167,140.61c2.91,2.62,3.35,6.74,1,9.21s-6.68,2.33-9.59-.3L1136.69,130c-1.79-1.6-3.54-3.2-6.45-3.2s-4.67,1.6-6.47,3.21l-21.63,19.52c-2.91,2.63-7.21,2.76-9.59.3s-1.94-6.59,1-9.21l27.72-25.06-27.46-24.79c-2.92-2.62-3.53-6.58-1.15-9s6.34-2,9.26.63l22.79,20.6a8.12,8.12,0,0,0,5.54,2.4,7.93,7.93,0,0,0,5.5-2.39c1.44-1.29,22.83-20.63,22.83-20.63,2.91-2.63,6.9-3,9.28-.58s1.74,6.4-1.18,9l-27.46,24.79,27.76,25Z"/><path class="cls-2" d="M809.12,94a11.42,11.42,0,0,0-7.89,3.28,10.21,10.21,0,0,0-3,7.17s-.36,3.9-.36,12.19.36,12.19.36,12.19a10.22,10.22,0,0,0,2.79,7c2,2.12,4.48,3.23,8,3.45s8,.37,21.67.37,18.92-.27,21.67-.37a11.86,11.86,0,0,0,7.66-3.06,10.22,10.22,0,0,0,3.17-7.38s.39-4.55.39-12.19-.39-12.19-.39-12.19a10.2,10.2,0,0,0-3.06-7.28A11.06,11.06,0,0,0,852.46,94c-3.26-.11-8.68-.37-21.67-.37S812.33,93.89,809.12,94Zm44.93-12.19c12,0,21.88,9.36,21.88,20.89,0,0,.36,4.93.36,13.9s-.36,14-.36,14c0,11.54-9.7,20.89-21.67,20.89,0,0-7,.36-23.48.36s-23.47-.36-23.47-.36c-12,0-21.67-9.35-21.67-20.89,0,0-.37-4.21-.37-14s.37-13.85.37-13.85c0-11.53,10-20.89,21.93-20.89,0,0,6.57-.36,23.09-.36S854.05,81.84,854.05,81.84Z"/><path class="cls-2" d="M1014.66,94a11.38,11.38,0,0,0-7.88,3.28,10.21,10.21,0,0,0-2.95,7.17s-.37,3.9-.37,12.19.37,12.19.37,12.19a10.21,10.21,0,0,0,2.78,7,11.2,11.2,0,0,0,8,3.45c3.57.23,8.05.37,21.67.37s18.92-.27,21.67-.37a11.84,11.84,0,0,0,7.66-3.06,10.23,10.23,0,0,0,3.18-7.38s.39-4.55.39-12.19-.39-12.19-.39-12.19a10.24,10.24,0,0,0-3.06-7.28A11.07,11.07,0,0,0,1058,94c-3.26-.11-8.68-.37-21.66-.37S1017.87,93.89,1014.66,94Zm44.94-12.19c12,0,21.88,9.36,21.88,20.89,0,0,.36,4.93.36,13.9s-.36,14-.36,14c0,11.54-9.7,20.89-21.67,20.89,0,0-7,.36-23.48.36s-23.47-.36-23.47-.36c-12,0-21.67-9.35-21.67-20.89,0,0-.38-4.21-.38-14s.38-13.85.38-13.85c0-11.53,10-20.89,21.92-20.89,0,0,6.57-.36,23.1-.36S1059.6,81.84,1059.6,81.84Z"/><path class="cls-2" d="M979.4,83.92c-2.9-1.87-6.78-.52-9,2.68,0,0-28.19,37.68-30.66,41s-4.14,4-6,4c-1.74,0-3.66-.71-6.15-4s-30.67-41-30.67-41c-2.22-3.18-6.09-4.51-9-2.64s-3.46,6-1.25,9.17l41.17,55.07a8.21,8.21,0,0,0,1.48,1.56,6.14,6.14,0,0,0,9.11-.32,7.39,7.39,0,0,0,1.06-1.23L980.64,93.1C982.86,89.9,982.3,85.79,979.4,83.92Z"/><path class="cls-2" d="M658.89,127.1a25.09,25.09,0,0,0,7-2.8,22.42,22.42,0,0,0,6.62-6,22.2,22.2,0,0,0,4-13.14c.22-13.61-10.86-23.38-24.21-23.38H599.35c-3.49,0-6.32,3.11-6.32,7v55.73c0,3.84,2.83,7,6.32,7s6.32-3.12,6.32-7V133.2a6.21,6.21,0,0,1,6.32-6.1h28.54l24.34,22.27c2.89,2.65,7.19,2.82,9.59.38s2-6.57-.89-9.22Zm-46-12.19h-.34a7.36,7.36,0,0,1-5.31-2.21,7.06,7.06,0,0,1-1.87-4.51c-.11-1.83-.12-5.59,0-7.44a7,7,0,0,1,2-4.69A7.82,7.82,0,0,1,613,94h39.62a10.46,10.46,0,1,1,0,20.9Z"/><path class="cls-1" d="M297.93,70.64c-1-37.89-32.3-68.22-71-68.17H19.47C9.44,2.47,3,9.65,3,18.5V160.31c0,37.57,31.75,67.63,70.4,68.42s114.94,1,153.58,0c39-1,69.82-29.06,71-68.42ZM30.08,44.17A16.59,16.59,0,0,1,34.86,33a16.93,16.93,0,0,1,12-4.82c2.69-.11,13.07-.39,51.1-.38,38.2,0,42.68.38,42.68.38,14.7.37,24.94,11.15,24.94,24.91,0,11.56-8.44,21.4-19.72,24.16-5.69,1.4-10.36,1-26.61,1-6.76,0-13.25,0-21.29,0-35.31,0-48.9,0-51.09-.3-5.6-.44-9.32-2-12.38-5.27a16.72,16.72,0,0,1-4.37-10.76C29.89,57.55,29.9,48.57,30.08,44.17ZM271,159.26c0,24-18.9,41.43-45.06,43.45-13.21,1-136.34.87-150.44,0C49,201.06,30.48,183.26,30.48,159.26c0,0-.44-14-.44-20.42s.1-20.4.1-20.4c0-7.74,6.64-14,14.67-14h68.68s49.13,45.35,55.66,51.26c7,5.37,15.9,6.41,21.34.71,5.07-5.3,5.31-13.77-2.25-21.06l-35-32.11h0s27.38-4.85,37.13-31-4.54-44.49-4.55-44.5H226C250.87,27.75,271,47.21,271,71.2c0,0,.44,3.47.44,44S271,159.26,271,159.26Z"/></svg>